BoltSans-Med.ufo
<glyph name="C" format="2">
  <advance width="687"/>
  <unicode hex="0043"/>
  <outline>
    <contour>
      <point x="35" y="355.698" type="curve" smooth="yes"/>
      <point x="35" y="581.861"/>
      <point x="156.604" y="722"/>
      <point x="352.856" y="722" type="curve" smooth="yes"/>
      <point x="525.897" y="722"/>
      <point x="650.792" y="613.03"/>
      <point x="652" y="461" type="curve"/>
      <point x="543" y="461" type="line"/>
      <point x="541.576" y="553.708"/>
      <point x="457.689" y="624"/>
      <point x="348.478" y="624" type="curve" smooth="yes"/>
      <point x="218.374" y="624"/>
      <point x="141" y="524.415"/>
      <point x="141" y="356.965" type="curve" smooth="yes"/>
      <point x="141" y="186.7"/>
      <point x="220.765" y="83"/>
      <point x="351.729" y="83" type="curve" smooth="yes"/>
      <point x="459.805" y="83"/>
      <point x="543" y="153.463"/>
      <point x="543" y="245" type="curve"/>
      <point x="652" y="245" type="line"/>
      <point x="652" y="97.1446"/>
      <point x="521.966" y="-15"/>
      <point x="350.524" y="-15" type="curve" smooth="yes"/>
      <point x="157.187" y="-15"/>
      <point x="35" y="128.553"/>
    </contour>
  </outline>
</glyph>
<glyph name="E" format="2">
  <advance width="550"/>
  <unicode hex="0045"/>
  <outline>
    <contour>
      <point x="510" y="93" type="line"/>
      <point x="155" y="93" type="line"/>
      <point x="155" y="307" type="line"/>
      <point x="480" y="307" type="line"/>
      <point x="480" y="400" type="line"/>
      <point x="155" y="400" type="line"/>
      <point x="155" y="617" type="line"/>
      <point x="510" y="617" type="line"/>
      <point x="510" y="710" type="line"/>
      <point x="50" y="710" type="line"/>
      <point x="50" y="0" type="line"/>
      <point x="510" y="0" type="line"/>
    </contour>
  </outline>
</glyph>
<glyph name="G" format="2">
  <advance width="687"/>
  <unicode hex="0047"/>
  <outline>
    <contour>
      <point x="652" y="0" type="line"/>
      <point x="567" y="0" type="line"/>
      <point x="559" y="272" type="line"/>
      <point x="340" y="272" type="line"/>
      <point x="340" y="365" type="line"/>
      <point x="652" y="365" type="line"/>
    </contour>
    <contour>
      <point x="35" y="351.727" type="curve" smooth="yes"/>
      <point x="35" y="581.5"/>
      <point x="155.148" y="722"/>
      <point x="351.638" y="722" type="curve" smooth="yes"/>
      <point x="525.004" y="722"/>
      <point x="650.782" y="602.705"/>
      <point x="652" y="461" type="curve"/>
      <point x="543" y="461" type="line"/>
      <point x="541.558" y="553.394"/>
      <point x="456.745" y="624"/>
      <point x="347.2" y="624" type="curve" smooth="yes"/>
      <point x="217.56" y="624"/>
      <point x="141" y="524.811"/>
      <point x="141" y="356.852" type="curve" smooth="yes"/>
      <point x="141" y="187.105"/>
      <point x="219.325" y="83"/>
      <point x="347.036" y="83" type="curve" smooth="yes"/>
      <point x="470.587" y="83"/>
      <point x="540" y="162.858"/>
      <point x="540" y="305" type="curve"/>
      <point x="562" y="305" type="line"/>
      <point x="562" y="103.985"/>
      <point x="473.636" y="-15"/>
      <point x="324.353" y="-15" type="curve" smooth="yes"/>
      <point x="149.066" y="-15"/>
      <point x="35" y="129.568"/>
    </contour>
  </outline>
</glyph>
<glyph name="H" format="2">
  <advance width="665"/>
  <unicode hex="0048"/>
  <outline>
    <contour>
      <point x="50" y="710" type="line"/>
      <point x="155" y="710" type="line"/>
      <point x="155" y="405" type="line"/>
      <point x="510" y="405" type="line"/>
      <point x="510" y="710" type="line"/>
      <point x="615" y="710" type="line"/>
      <point x="615" y="0" type="line"/>
      <point x="510" y="0" type="line"/>
      <point x="510" y="312" type="line"/>
      <point x="155" y="312" type="line"/>
      <point x="155" y="0" type="line"/>
      <point x="50" y="0" type="line"/>
    </contour>
  </outline>
</glyph>
<glyph name="I" format="2">
  <advance width="205"/>
  <unicode hex="0049"/>
  <outline>
    <contour>
      <point x="50" y="710" type="line"/>
      <point x="155" y="710" type="line"/>
      <point x="155" y="0" type="line"/>
      <point x="50" y="0" type="line"/>
    </contour>
  </outline>
</glyph>
<glyph name="K" format="2">
  <advance width="599"/>
  <unicode hex="004B"/>
  <outline>
    <contour>
      <point x="50" y="710" type="line"/>
      <point x="155" y="710" type="line"/>
      <point x="155" y="340" type="line"/>
      <point x="433" y="710" type="line"/>
      <point x="569" y="710" type="line"/>
      <point x="312" y="380" type="line"/>
      <point x="555" y="380" type="line"/>
      <point x="555" y="0" type="line"/>
      <point x="450" y="0" type="line"/>
      <point x="450" y="273" type="line"/>
      <point x="155" y="273" type="line"/>
      <point x="155" y="0" type="line"/>
      <point x="50" y="0" type="line"/>
    </contour>
  </outline>
</glyph>
<glyph name="L" format="2">
  <advance width="540"/>
  <unicode hex="004C"/>
  <outline>
    <contour>
      <point x="510" y="93" type="line"/>
      <point x="155" y="93" type="line"/>
      <point x="155" y="710" type="line"/>
      <point x="50" y="710" type="line"/>
      <point x="50" y="0" type="line"/>
      <point x="510" y="0" type="line"/>
    </contour>
  </outline>
</glyph>
<glyph name="M" format="2">
  <advance width="780"/>
  <unicode hex="004D"/>
  <outline>
    <contour>
      <point x="730" y="710" type="line"/>
      <point x="730" y="0" type="line"/>
      <point x="625" y="0" type="line"/>
      <point x="625" y="517" type="line"/>
      <point x="450" y="50" type="line"/>
      <point x="330" y="50" type="line"/>
      <point x="155" y="517" type="line"/>
      <point x="155" y="0" type="line"/>
      <point x="50" y="0" type="line"/>
      <point x="50" y="710" type="line"/>
      <point x="185" y="710" type="line"/>
      <point x="390" y="173" type="line"/>
      <point x="595" y="710" type="line"/>
    </contour>
  </outline>
</glyph>
<glyph name="N" format="2">
  <advance width="665"/>
  <unicode hex="004E"/>
  <outline>
    <contour>
      <point x="50" y="710" type="line"/>
      <point x="175" y="710" type="line"/>
      <point x="510" y="173" type="line"/>
      <point x="510" y="710" type="line"/>
      <point x="615" y="710" type="line"/>
      <point x="615" y="0" type="line"/>
      <point x="510" y="0" type="line"/>
      <point x="155" y="557" type="line"/>
      <point x="155" y="0" type="line"/>
      <point x="50" y="0" type="line"/>
    </contour>
  </outline>
</glyph>
<glyph name="O" format="2">
  <advance width="692"/>
  <unicode hex="004F"/>
  <outline>
    <contour>
      <point x="35" y="356" type="curve" smooth="yes"/>
      <point x="35" y="580.368"/>
      <point x="154.288" y="722"/>
      <point x="341" y="722" type="curve" smooth="yes"/>
      <point x="533.814" y="722"/>
      <point x="657" y="580.368"/>
      <point x="657" y="356" type="curve" smooth="yes"/>
      <point x="657" y="128.658"/>
      <point x="533.814" y="-15"/>
      <point x="341" y="-15" type="curve" smooth="yes"/>
      <point x="154.288" y="-15"/>
      <point x="35" y="128.658"/>
    </contour>
    <contour>
      <point x="141" y="356" type="curve" smooth="yes"/>
      <point x="141" y="187"/>
      <point x="216.385" y="83"/>
      <point x="341" y="83" type="curve" smooth="yes"/>
      <point x="471.846" y="83"/>
      <point x="551" y="187"/>
      <point x="551" y="356" type="curve" smooth="yes"/>
      <point x="551" y="523.706"/>
      <point x="471.846" y="624"/>
      <point x="341" y="624" type="curve" smooth="yes"/>
      <point x="216.385" y="624"/>
      <point x="141" y="523.706"/>
    </contour>
  </outline>
</glyph>
<glyph name="Q" format="2">
  <advance width="692"/>
  <unicode hex="0051"/>
  <outline>
    <contour>
      <point x="247" y="363" type="line"/>
      <point x="318" y="427" type="line"/>
      <point x="670" y="20" type="line"/>
      <point x="602" y="-44" type="line"/>
    </contour>
    <contour>
      <point x="35" y="356" type="curve" smooth="yes"/>
      <point x="35" y="580.368"/>
      <point x="154.288" y="722"/>
      <point x="341" y="722" type="curve" smooth="yes"/>
      <point x="533.814" y="722"/>
      <point x="657" y="580.368"/>
      <point x="657" y="356" type="curve" smooth="yes"/>
      <point x="657" y="128.658"/>
      <point x="533.814" y="-15"/>
      <point x="341" y="-15" type="curve" smooth="yes"/>
      <point x="154.288" y="-15"/>
      <point x="35" y="128.658"/>
    </contour>
    <contour>
      <point x="141" y="356" type="curve" smooth="yes"/>
      <point x="141" y="187"/>
      <point x="216.385" y="83"/>
      <point x="341" y="83" type="curve" smooth="yes"/>
      <point x="471.846" y="83"/>
      <point x="551" y="187"/>
      <point x="551" y="356" type="curve" smooth="yes"/>
      <point x="551" y="523.706"/>
      <point x="471.846" y="624"/>
      <point x="341" y="624" type="curve" smooth="yes"/>
      <point x="216.385" y="624"/>
      <point x="141" y="523.706"/>
    </contour>
  </outline>
</glyph>
<glyph name="S" format="2">
  <advance width="635"/>
  <unicode hex="0053"/>
  <outline>
    <contour>
      <point x="600" y="193.236" type="curve" smooth="yes"/>
      <point x="600" y="300.828"/>
      <point x="517.868" y="377.982"/>
      <point x="396" y="399.602" type="curve" smooth="yes"/>
      <point x="268" y="422.309" type="line" smooth="yes"/>
      <point x="189.462" y="436.241"/>
      <point x="150" y="470.222"/>
      <point x="150" y="520.73" type="curve" smooth="yes"/>
      <point x="150" y="583.663"/>
      <point x="215.804" y="630"/>
      <point x="311.095" y="630" type="curve" smooth="yes"/>
      <point x="411.277" y="630"/>
      <point x="484" y="574.135"/>
      <point x="484" y="493" type="curve"/>
      <point x="590" y="493" type="line"/>
      <point x="590" y="626.617"/>
      <point x="469.966" y="722"/>
      <point x="304.61" y="722" type="curve" smooth="yes"/>
      <point x="145.36" y="722"/>
      <point x="45" y="641.893"/>
      <point x="45" y="519.403" type="curve" smooth="yes"/>
      <point x="45" y="415.043"/>
      <point x="121.297" y="343.72"/>
      <point x="238" y="322.003" type="curve" smooth="yes"/>
      <point x="368" y="297.812" type="line" smooth="yes"/>
      <point x="456.527" y="281.338"/>
      <point x="495" y="242.841"/>
      <point x="495" y="193.335" type="curve" smooth="yes"/>
      <point x="495" y="126.751"/>
      <point x="424.044" y="81"/>
      <point x="321.758" y="81" type="curve" smooth="yes"/>
      <point x="212.953" y="81"/>
      <point x="141" y="135.153"/>
      <point x="141" y="219" type="curve"/>
      <point x="35" y="219" type="line"/>
      <point x="35" y="87.5901"/>
      <point x="161.424" y="-10"/>
      <point x="331.746" y="-10" type="curve" smooth="yes"/>
      <point x="494.67" y="-10"/>
      <point x="600" y="70.6845"/>
    </contour>
  </outline>
</glyph>
<glyph name="T" format="2">
  <advance width="579"/>
  <unicode hex="0054"/>
  <outline>
    <contour>
      <point x="549" y="617" type="line"/>
      <point x="549" y="710" type="line"/>
      <point x="30" y="710" type="line"/>
      <point x="30" y="617" type="line"/>
      <point x="237" y="617" type="line"/>
      <point x="237" y="0" type="line"/>
      <point x="342" y="0" type="line"/>
      <point x="342" y="617" type="line"/>
    </contour>
  </outline>
</glyph>
<glyph name="a" format="2">
  <advance width="539"/>
  <unicode hex="0061"/>
  <outline>
    <contour>
      <point x="350" y="328" type="line" smooth="yes"/>
      <point x="350" y="379.025"/>
      <point x="309.89" y="415"/>
      <point x="253" y="415" type="curve" smooth="yes"/>
      <point x="188.091" y="415"/>
      <point x="151" y="384.091"/>
      <point x="151" y="330" type="curve"/>
      <point x="40" y="330" type="line"/>
      <point x="40" y="437.618"/>
      <point x="127.868" y="512"/>
      <point x="255" y="512" type="curve" smooth="yes"/>
      <point x="377.186" y="512"/>
      <point x="455" y="440.412"/>
      <point x="455" y="328" type="curve" smooth="yes"/>
      <point x="455" y="95" type="line"/>
      <point x="515" y="95" type="line"/>
      <point x="515" y="0" type="line"/>
      <point x="460" y="0" type="line" smooth="yes"/>
      <point x="391.568" y="0"/>
      <point x="352" y="48.7278"/>
      <point x="352" y="133" type="curve"/>
      <point x="344.986" y="38.7093"/>
      <point x="285.107" y="-15"/>
      <point x="187" y="-15" type="curve" smooth="yes"/>
      <point x="97.4677" y="-15"/>
      <point x="35" y="45.0019"/>
      <point x="35" y="131" type="curve" smooth="yes"/>
      <point x="35" y="231.06"/>
      <point x="105.06" y="290"/>
      <point x="224" y="290" type="curve" smooth="yes"/>
      <point x="350" y="290" type="line"/>
    </contour>
    <contour>
      <point x="350" y="200" type="line"/>
      <point x="229" y="200" type="line" smooth="yes"/>
      <point x="170.108" y="200"/>
      <point x="141" y="180.484"/>
      <point x="141" y="141" type="curve" smooth="yes"/>
      <point x="141" y="104.725"/>
      <point x="171.715" y="83"/>
      <point x="223" y="83" type="curve" smooth="yes"/>
      <point x="307.226" y="83"/>
      <point x="350" y="123.787"/>
      <point x="350" y="182" type="curve" smooth="yes"/>
    </contour>
  </outline>
</glyph>
<glyph name="b" format="2">
  <advance width="556"/>
  <unicode hex="0062"/>
  <outline>
    <contour>
      <point x="50" y="750" type="line"/>
      <point x="155" y="750" type="line"/>
      <point x="155" y="356" type="line"/>
      <point x="186.437" y="456.919"/>
      <point x="245.048" y="512"/>
      <point x="321" y="512" type="curve" smooth="yes"/>
      <point x="442.187" y="512"/>
      <point x="521" y="408.755"/>
      <point x="521" y="250" type="curve" smooth="yes"/>
      <point x="521" y="89.8375"/>
      <point x="441.877" y="-15"/>
      <point x="321" y="-15" type="curve" smooth="yes"/>
      <point x="244.793" y="-15"/>
      <point x="186.328" y="40.2955"/>
      <point x="155" y="142" type="curve"/>
      <point x="135" y="0" type="line"/>
      <point x="50" y="0" type="line"/>
    </contour>
    <contour>
      <point x="155" y="250" type="line" smooth="yes"/>
      <point x="155" y="147.115"/>
      <point x="204.91" y="83"/>
      <point x="285" y="83" type="curve" smooth="yes"/>
      <point x="365.09" y="83"/>
      <point x="415" y="147.115"/>
      <point x="415" y="250" type="curve" smooth="yes"/>
      <point x="415" y="352.593"/>
      <point x="366.323" y="414"/>
      <point x="285" y="414" type="curve" smooth="yes"/>
      <point x="203.677" y="414"/>
      <point x="155" y="352.593"/>
      <point x="155" y="250" type="curve" smooth="yes"/>
    </contour>
  </outline>
</glyph>
<glyph name="c" format="2">
  <advance width="542"/>
  <unicode hex="0063"/>
  <outline>
    <contour>
      <point x="35" y="249.5" type="curve" smooth="yes"/>
      <point x="35" y="410.701"/>
      <point x="128.659" y="512"/>
      <point x="277.702" y="512" type="curve" smooth="yes"/>
      <point x="407.787" y="512"/>
      <point x="501.098" y="432.541"/>
      <point x="502" y="321" type="curve"/>
      <point x="393" y="321" type="line"/>
      <point x="392.141" y="373.869"/>
      <point x="341.536" y="414"/>
      <point x="275.729" y="414" type="curve" smooth="yes"/>
      <point x="191.5" y="414"/>
      <point x="141" y="352.528"/>
      <point x="141" y="250" type="curve" smooth="yes"/>
      <point x="141" y="145.939"/>
      <point x="192.721" y="83"/>
      <point x="278.233" y="83" type="curve" smooth="yes"/>
      <point x="343.145" y="83"/>
      <point x="393" y="121.662"/>
      <point x="393" y="172" type="curve"/>
      <point x="502" y="172" type="line"/>
      <point x="502" y="64.9993"/>
      <point x="403.821" y="-15"/>
      <point x="272.505" y="-15" type="curve" smooth="yes"/>
      <point x="127.244" y="-15"/>
      <point x="35" y="87.7284"/>
    </contour>
  </outline>
</glyph>
<glyph name="d" format="2">
  <advance width="556"/>
  <unicode hex="0064"/>
  <outline>
    <contour>
      <point x="506" y="750" type="line"/>
      <point x="401" y="750" type="line"/>
      <point x="401" y="356" type="line"/>
      <point x="370" y="455.517"/>
      <point x="312" y="512"/>
      <point x="235" y="512" type="curve" smooth="yes"/>
      <point x="114" y="512"/>
      <point x="35" y="409"/>
      <point x="35" y="250" type="curve" smooth="yes"/>
      <point x="35" y="90"/>
      <point x="114" y="-15"/>
      <point x="235" y="-15" type="curve" smooth="yes"/>
      <point x="312" y="-15"/>
      <point x="370" y="41.359"/>
      <point x="401" y="142" type="curve"/>
      <point x="421" y="0" type="line"/>
      <point x="506" y="0" type="line"/>
    </contour>
    <contour>
      <point x="401" y="250" type="curve" smooth="yes"/>
      <point x="401" y="147"/>
      <point x="351" y="83"/>
      <point x="271" y="83" type="curve" smooth="yes"/>
      <point x="191" y="83"/>
      <point x="141" y="147"/>
      <point x="141" y="250" type="curve" smooth="yes"/>
      <point x="141" y="353"/>
      <point x="190" y="414"/>
      <point x="271" y="414" type="curve" smooth="yes"/>
      <point x="352" y="414"/>
      <point x="401" y="353"/>
    </contour>
  </outline>
</glyph>
<glyph name="e" format="2">
  <advance width="542"/>
  <unicode hex="0065"/>
  <outline>
    <contour>
      <point x="395" y="305" type="line"/>
      <point x="395" y="378"/>
      <point x="335" y="414"/>
      <point x="271" y="414" type="curve" smooth="yes"/>
      <point x="207" y="414"/>
      <point x="147" y="371.866"/>
      <point x="147" y="305" type="curve"/>
    </contour>
    <contour>
      <point x="35" y="251" type="curve" smooth="yes"/>
      <point x="35" y="411"/>
      <point x="127" y="512"/>
      <point x="271" y="512" type="curve" smooth="yes"/>
      <point x="415" y="512"/>
      <point x="507" y="415"/>
      <point x="507" y="261" type="curve" smooth="yes"/>
      <point x="507" y="247"/>
      <point x="506" y="234"/>
      <point x="505" y="221" type="curve"/>
      <point x="143" y="221" type="line"/>
      <point x="143" y="136"/>
      <point x="204.625" y="83"/>
      <point x="279" y="83" type="curve" smooth="yes"/>
      <point x="345.344" y="83"/>
      <point x="393" y="110"/>
      <point x="393" y="166" type="curve"/>
      <point x="502" y="166" type="line"/>
      <point x="502" y="44"/>
      <point x="407.394" y="-15"/>
      <point x="279" y="-15" type="curve" smooth="yes"/>
      <point x="130.119" y="-15"/>
      <point x="35" y="88"/>
    </contour>
  </outline>
</glyph>
<glyph name="f" format="2">
  <advance width="403"/>
  <unicode hex="0066"/>
  <outline>
    <contour>
      <point x="248" y="500" type="line"/>
      <point x="378" y="500" type="line"/>
      <point x="378" y="407" type="line"/>
      <point x="248" y="407" type="line"/>
      <point x="248" y="0" type="line"/>
      <point x="143" y="0" type="line"/>
      <point x="143" y="407" type="line"/>
      <point x="25" y="407" type="line"/>
      <point x="25" y="500" type="line"/>
      <point x="143" y="500" type="line"/>
      <point x="143" y="630" type="line" smooth="yes"/>
      <point x="143" y="704.4"/>
      <point x="189.846" y="750"/>
      <point x="269" y="750" type="curve" smooth="yes"/>
      <point x="378" y="750" type="line"/>
      <point x="378" y="655" type="line"/>
      <point x="248" y="655" type="line"/>
    </contour>
  </outline>
</glyph>
<glyph name="g" format="2">
  <advance width="488"/>
  <unicode hex="0067"/>
  <outline>
    <contour>
      <point x="200" y="-28" type="line" smooth="yes"/>
      <point x="144.045" y="-28"/>
      <point x="110" y="-52.9667"/>
      <point x="110" y="-94" type="curve" smooth="yes"/>
      <point x="110" y="-138.089"/>
      <point x="144.113" y="-165"/>
      <point x="200" y="-165" type="curve" smooth="yes"/>
      <point x="282" y="-165" type="line" smooth="yes"/>
      <point x="337.955" y="-165"/>
      <point x="372" y="-140.033"/>
      <point x="372" y="-99" type="curve" smooth="yes"/>
      <point x="372" y="-54.9111"/>
      <point x="337.887" y="-28"/>
      <point x="282" y="-28" type="curve" smooth="yes"/>
    </contour>
    <contour>
      <point x="190" y="-260" type="line" smooth="yes"/>
      <point x="76.2425" y="-260"/>
      <point x="4" y="-208.343"/>
      <point x="4" y="-127" type="curve" smooth="yes"/>
      <point x="4" y="-64.9647"/>
      <point x="53.1351" y="-25.73"/>
      <point x="138" y="-20" type="curve"/>
      <point x="87.2501" y="-15.9091"/>
      <point x="54" y="17.3411"/>
      <point x="54" y="64" type="curve" smooth="yes"/>
      <point x="54" y="109.167"/>
      <point x="80.2603" y="142.277"/>
      <point x="123" y="151" type="curve"/>
      <point x="66.3299" y="183.383"/>
      <point x="35" y="243.907"/>
      <point x="35" y="321" type="curve" smooth="yes"/>
      <point x="35" y="437.969"/>
      <point x="110.969" y="512"/>
      <point x="231" y="512" type="curve" smooth="yes"/>
      <point x="458" y="512" type="line"/>
      <point x="458" y="425" type="line"/>
      <point x="309" y="425" type="line"/>
      <point x="384.94" y="413.162"/>
      <point x="425" y="366.886"/>
      <point x="425" y="291" type="curve" smooth="yes"/>
      <point x="425" y="189.718"/>
      <point x="349.366" y="125"/>
      <point x="231" y="125" type="curve" smooth="yes"/>
      <point x="172.132" y="125"/>
      <point x="150" y="109.153"/>
      <point x="150" y="67" type="curve"/>
      <point x="282" y="67" type="line" smooth="yes"/>
      <point x="401.627" y="67"/>
      <point x="478" y="2.31654"/>
      <point x="478" y="-99" type="curve" smooth="yes"/>
      <point x="478" y="-197.786"/>
      <point x="402.261" y="-260"/>
      <point x="282" y="-260" type="curve" smooth="yes"/>
    </contour>
    <contour>
      <point x="141" y="321" type="curve" smooth="yes"/>
      <point x="141" y="256.144"/>
      <point x="174.875" y="217"/>
      <point x="231" y="217" type="curve" smooth="yes"/>
      <point x="287.125" y="217"/>
      <point x="321" y="256.144"/>
      <point x="321" y="321" type="curve" smooth="yes"/>
      <point x="321" y="382.8"/>
      <point x="287.182" y="420"/>
      <point x="231" y="420" type="curve" smooth="yes"/>
      <point x="174.818" y="420"/>
      <point x="141" y="382.8"/>
    </contour>
  </outline>
</glyph>
<glyph name="h" format="2">
  <advance width="545"/>
  <unicode hex="0068"/>
  <outline>
    <contour>
      <point x="50" y="750" type="line"/>
      <point x="155" y="750" type="line"/>
      <point x="155" y="368" type="line"/>
      <point x="180" y="451.077"/>
      <point x="242" y="512"/>
      <point x="323" y="512" type="curve" smooth="yes"/>
      <point x="436" y="512"/>
      <point x="495" y="431"/>
      <point x="495" y="310" type="curve" smooth="yes"/>
      <point x="495" y="0" type="line"/>
      <point x="390" y="0" type="line"/>
      <point x="390" y="300" type="line" smooth="yes"/>
      <point x="390" y="363"/>
      <point x="351" y="414"/>
      <point x="281" y="414" type="curve" smooth="yes"/>
      <point x="207" y="414"/>
      <point x="155" y="357"/>
      <point x="155" y="300" type="curve" smooth="yes"/>
      <point x="155" y="0" type="line"/>
      <point x="50" y="0" type="line"/>
    </contour>
  </outline>
</glyph>
<glyph name="i" format="2">
  <advance width="205"/>
  <unicode hex="0069"/>
  <outline>
    <contour>
      <point x="50" y="500" type="line"/>
      <point x="155" y="500" type="line"/>
      <point x="155" y="0" type="line"/>
      <point x="50" y="0" type="line"/>
    </contour>
    <contour>
      <point x="50" y="692" type="line"/>
      <point x="155" y="692" type="line"/>
      <point x="155" y="584" type="line"/>
      <point x="50" y="584" type="line"/>
    </contour>
  </outline>
</glyph>
<glyph name="j" format="2">
  <advance width="205"/>
  <unicode hex="006A"/>
  <outline>
    <contour>
      <point x="50" y="500" type="line"/>
      <point x="155" y="500" type="line"/>
      <point x="155" y="-29" type="line" smooth="yes"/>
      <point x="155" y="-104"/>
      <point x="107" y="-149"/>
      <point x="29" y="-149" type="curve" smooth="yes"/>
      <point x="-50" y="-149" type="line"/>
      <point x="-50" y="-54" type="line"/>
      <point x="50" y="-54" type="line"/>
    </contour>
    <contour>
      <point x="50" y="692" type="line"/>
      <point x="155" y="692" type="line"/>
      <point x="155" y="584" type="line"/>
      <point x="50" y="584" type="line"/>
    </contour>
  </outline>
</glyph>
<glyph name="k" format="2">
  <advance width="545"/>
  <unicode hex="006B"/>
  <outline>
    <contour>
      <point x="50" y="750" type="line"/>
      <point x="155" y="750" type="line"/>
      <point x="155" y="260" type="line"/>
      <point x="342" y="500" type="line"/>
      <point x="478" y="500" type="line"/>
      <point x="312" y="300" type="line"/>
      <point x="495" y="300" type="line"/>
      <point x="495" y="0" type="line"/>
      <point x="390" y="0" type="line"/>
      <point x="390" y="193" type="line"/>
      <point x="155" y="193" type="line"/>
      <point x="155" y="0" type="line"/>
      <point x="50" y="0" type="line"/>
    </contour>
  </outline>
</glyph>
<glyph name="l" format="2">
  <advance width="205"/>
  <unicode hex="006C"/>
  <outline>
    <contour>
      <point x="50" y="750" type="line"/>
      <point x="155" y="750" type="line"/>
      <point x="155" y="0" type="line"/>
      <point x="50" y="0" type="line"/>
    </contour>
  </outline>
</glyph>
<glyph name="m" format="2">
  <advance width="845"/>
  <unicode hex="006D"/>
  <outline>
    <contour>
      <point x="50" y="500" type="line"/>
      <point x="135" y="500" type="line"/>
      <point x="155" y="371" type="line"/>
      <point x="178" y="453.366"/>
      <point x="236" y="512"/>
      <point x="313" y="512" type="curve" smooth="yes"/>
      <point x="392" y="512"/>
      <point x="443" y="451.615"/>
      <point x="464" y="355" type="curve"/>
      <point x="485" y="443.564"/>
      <point x="548" y="512"/>
      <point x="633" y="512" type="curve" smooth="yes"/>
      <point x="740" y="512"/>
      <point x="795" y="431"/>
      <point x="795" y="310" type="curve" smooth="yes"/>
      <point x="795" y="0" type="line"/>
      <point x="690" y="0" type="line"/>
      <point x="690" y="300" type="line" smooth="yes"/>
      <point x="690" y="363"/>
      <point x="654" y="414"/>
      <point x="591" y="414" type="curve" smooth="yes"/>
      <point x="523" y="414"/>
      <point x="475" y="362"/>
      <point x="475" y="310" type="curve" smooth="yes"/>
      <point x="475" y="0" type="line"/>
      <point x="370" y="0" type="line"/>
      <point x="370" y="300" type="line" smooth="yes"/>
      <point x="370" y="363"/>
      <point x="334" y="414"/>
      <point x="271" y="414" type="curve" smooth="yes"/>
      <point x="203" y="414"/>
      <point x="155" y="357"/>
      <point x="155" y="300" type="curve" smooth="yes"/>
      <point x="155" y="0" type="line"/>
      <point x="50" y="0" type="line"/>
    </contour>
  </outline>
</glyph>
<glyph name="o" format="2">
  <advance width="542"/>
  <unicode hex="006F"/>
  <outline>
    <contour>
      <point x="35" y="251" type="curve" smooth="yes"/>
      <point x="35" y="411"/>
      <point x="127" y="512"/>
      <point x="271" y="512" type="curve" smooth="yes"/>
      <point x="415" y="512"/>
      <point x="507" y="411"/>
      <point x="507" y="251" type="curve" smooth="yes"/>
      <point x="507" y="88"/>
      <point x="415" y="-15"/>
      <point x="271" y="-15" type="curve" smooth="yes"/>
      <point x="127" y="-15"/>
      <point x="35" y="88"/>
    </contour>
    <contour>
      <point x="141" y="251" type="curve" smooth="yes"/>
      <point x="141" y="147"/>
      <point x="190" y="83"/>
      <point x="271" y="83" type="curve" smooth="yes"/>
      <point x="352" y="83"/>
      <point x="401" y="147"/>
      <point x="401" y="251" type="curve" smooth="yes"/>
      <point x="401" y="353"/>
      <point x="352" y="414"/>
      <point x="271" y="414" type="curve" smooth="yes"/>
      <point x="190" y="414"/>
      <point x="141" y="353"/>
    </contour>
  </outline>
</glyph>
<glyph name="p" format="2">
  <advance width="556"/>
  <unicode hex="0070"/>
  <outline>
    <contour>
      <point x="50" y="-200" type="line"/>
      <point x="155" y="-200" type="line"/>
      <point x="155" y="144" type="line"/>
      <point x="186" y="44.4828"/>
      <point x="244" y="-12"/>
      <point x="321" y="-12" type="curve" smooth="yes"/>
      <point x="442" y="-12"/>
      <point x="521" y="91"/>
      <point x="521" y="250" type="curve" smooth="yes"/>
      <point x="521" y="410"/>
      <point x="442" y="515"/>
      <point x="321" y="515" type="curve" smooth="yes"/>
      <point x="244" y="515"/>
      <point x="186" y="458.641"/>
      <point x="155" y="358" type="curve"/>
      <point x="135" y="500" type="line"/>
      <point x="50" y="500" type="line"/>
    </contour>
    <contour>
      <point x="155" y="250" type="curve" smooth="yes"/>
      <point x="155" y="353"/>
      <point x="205" y="417"/>
      <point x="285" y="417" type="curve" smooth="yes"/>
      <point x="365" y="417"/>
      <point x="415" y="353"/>
      <point x="415" y="250" type="curve" smooth="yes"/>
      <point x="415" y="147"/>
      <point x="366" y="86"/>
      <point x="285" y="86" type="curve" smooth="yes"/>
      <point x="204" y="86"/>
      <point x="155" y="147"/>
    </contour>
  </outline>
</glyph>
<glyph name="q" format="2">
  <advance width="556"/>
  <unicode hex="0071"/>
  <outline>
    <contour>
      <point x="506" y="-200" type="line"/>
      <point x="401" y="-200" type="line"/>
      <point x="401" y="144" type="line"/>
      <point x="370" y="44.4828"/>
      <point x="312" y="-12"/>
      <point x="235" y="-12" type="curve" smooth="yes"/>
      <point x="114" y="-12"/>
      <point x="35" y="91"/>
      <point x="35" y="250" type="curve" smooth="yes"/>
      <point x="35" y="410"/>
      <point x="114" y="515"/>
      <point x="235" y="515" type="curve" smooth="yes"/>
      <point x="312" y="515"/>
      <point x="370" y="458.641"/>
      <point x="401" y="358" type="curve"/>
      <point x="421" y="500" type="line"/>
      <point x="506" y="500" type="line"/>
    </contour>
    <contour>
      <point x="401" y="250" type="curve" smooth="yes"/>
      <point x="401" y="353"/>
      <point x="351" y="417"/>
      <point x="271" y="417" type="curve" smooth="yes"/>
      <point x="191" y="417"/>
      <point x="141" y="353"/>
      <point x="141" y="250" type="curve" smooth="yes"/>
      <point x="141" y="147"/>
      <point x="190" y="86"/>
      <point x="271" y="86" type="curve" smooth="yes"/>
      <point x="352" y="86"/>
      <point x="401" y="147"/>
    </contour>
  </outline>
</glyph>
<glyph name="r" format="2">
  <advance width="380"/>
  <unicode hex="0072"/>
  <outline>
    <contour>
      <point x="50" y="500" type="line"/>
      <point x="135" y="500" type="line"/>
      <point x="155" y="397" type="line"/>
      <point x="171.261" y="475.11"/>
      <point x="211.435" y="510"/>
      <point x="265" y="510" type="curve" smooth="yes"/>
      <point x="321.16" y="510"/>
      <point x="355" y="471.538"/>
      <point x="355" y="410" type="curve" smooth="yes"/>
      <point x="355" y="310" type="line"/>
      <point x="251" y="310" type="line"/>
      <point x="251" y="414" type="line"/>
      <point x="241" y="414" type="line" smooth="yes"/>
      <point x="194.854" y="414"/>
      <point x="155" y="390.357"/>
      <point x="155" y="320" type="curve" smooth="yes"/>
      <point x="155" y="0" type="line"/>
      <point x="50" y="0" type="line"/>
    </contour>
  </outline>
</glyph>
<glyph name="s" format="2">
  <advance width="475"/>
  <unicode hex="0073"/>
  <outline>
    <contour>
      <point x="440" y="143.236" type="curve" smooth="yes"/>
      <point x="440" y="223.717"/>
      <point x="383.924" y="280.358"/>
      <point x="296" y="297.602" type="curve" smooth="yes"/>
      <point x="208" y="310.309" type="line" smooth="yes"/>
      <point x="170.386" y="317.148"/>
      <point x="150" y="334.855"/>
      <point x="150" y="360.73" type="curve" smooth="yes"/>
      <point x="150" y="394.866"/>
      <point x="183.126" y="420"/>
      <point x="231.095" y="420" type="curve" smooth="yes"/>
      <point x="284.925" y="420"/>
      <point x="324" y="388.601"/>
      <point x="324" y="343" type="curve"/>
      <point x="430" y="343" type="line"/>
      <point x="430" y="441.608"/>
      <point x="343.614" y="512"/>
      <point x="224.61" y="512" type="curve" smooth="yes"/>
      <point x="114.433" y="512"/>
      <point x="45" y="451.663"/>
      <point x="45" y="359.404" type="curve" smooth="yes"/>
      <point x="45" y="280.42"/>
      <point x="95.8885" y="222.516"/>
      <point x="178" y="210.003" type="curve" smooth="yes"/>
      <point x="258" y="197.812" type="line" smooth="yes"/>
      <point x="315.102" y="189.11"/>
      <point x="335" y="169.148"/>
      <point x="335" y="143.335" type="curve" smooth="yes"/>
      <point x="335" y="106.387"/>
      <point x="296.81" y="81"/>
      <point x="241.758" y="81" type="curve" smooth="yes"/>
      <point x="181.108" y="81"/>
      <point x="141" y="111.608"/>
      <point x="141" y="159" type="curve"/>
      <point x="35" y="159" type="line"/>
      <point x="35" y="62.0207"/>
      <point x="127.341" y="-10"/>
      <point x="251.746" y="-10" type="curve" smooth="yes"/>
      <point x="366.082" y="-10"/>
      <point x="440" y="50.8344"/>
    </contour>
  </outline>
</glyph>
<glyph name="t" format="2">
  <advance width="403"/>
  <unicode hex="0074"/>
  <outline>
    <contour>
      <point x="248" y="407" type="line"/>
      <point x="248" y="95" type="line"/>
      <point x="378" y="95" type="line"/>
      <point x="378" y="0" type="line"/>
      <point x="249" y="0" type="line" smooth="yes"/>
      <point x="182.75" y="0"/>
      <point x="143" y="41.4615"/>
      <point x="143" y="110" type="curve" smooth="yes"/>
      <point x="143" y="407" type="line"/>
      <point x="25" y="407" type="line"/>
      <point x="25" y="500" type="line"/>
      <point x="143" y="500" type="line"/>
      <point x="143" y="629" type="line"/>
      <point x="248" y="659" type="line"/>
      <point x="248" y="500" type="line"/>
      <point x="375" y="500" type="line"/>
      <point x="375" y="407" type="line"/>
    </contour>
  </outline>
</glyph>
<glyph name="u" format="2">
  <advance width="525"/>
  <unicode hex="0075"/>
  <outline>
    <contour>
      <point x="475" y="0" type="line"/>
      <point x="390" y="0" type="line"/>
      <point x="370" y="132" type="line"/>
      <point x="347.083" y="48.9231"/>
      <point x="288.774" y="-12"/>
      <point x="212" y="-12" type="curve" smooth="yes"/>
      <point x="105.57" y="-12"/>
      <point x="50" y="69"/>
      <point x="50" y="190" type="curve" smooth="yes"/>
      <point x="50" y="500" type="line"/>
      <point x="155" y="500" type="line"/>
      <point x="155" y="200" type="line" smooth="yes"/>
      <point x="155" y="137"/>
      <point x="190.422" y="86"/>
      <point x="254" y="86" type="curve" smooth="yes"/>
      <point x="322.127" y="86"/>
      <point x="370" y="143"/>
      <point x="370" y="200" type="curve" smooth="yes"/>
      <point x="370" y="500" type="line"/>
      <point x="475" y="500" type="line"/>
    </contour>
  </outline>
</glyph>
<glyph name="v" format="2">
  <advance width="512"/>
  <unicode hex="0076"/>
  <outline>
    <contour>
      <point x="25" y="500" type="line"/>
      <point x="134" y="500" type="line"/>
      <point x="257.5" y="80.3574" type="line"/>
      <point x="381" y="500" type="line"/>
      <point x="487" y="500" type="line"/>
      <point x="335" y="0" type="line"/>
      <point x="177" y="0" type="line"/>
    </contour>
  </outline>
</glyph>
<glyph name="w" format="2">
  <advance width="808"/>
  <unicode hex="0077"/>
  <outline>
    <contour>
      <point x="25" y="500" type="line"/>
      <point x="134" y="500" type="line"/>
      <point x="237.5" y="80.3574" type="line"/>
      <point x="341" y="500" type="line"/>
      <point x="470" y="500" type="line"/>
      <point x="576.5" y="80.3574" type="line"/>
      <point x="677" y="500" type="line"/>
      <point x="783" y="500" type="line"/>
      <point x="651" y="0" type="line"/>
      <point x="493" y="0" type="line"/>
      <point x="399" y="395.931" type="line"/>
      <point x="315" y="0" type="line"/>
      <point x="157" y="0" type="line"/>
    </contour>
  </outline>
</glyph>
<glyph name="x" format="2">
  <advance width="552"/>
  <unicode hex="0078"/>
  <outline>
    <contour>
      <point x="25" y="500" type="line"/>
      <point x="138" y="500" type="line"/>
      <point x="277.5" y="299.357" type="line"/>
      <point x="417" y="500" type="line"/>
      <point x="527" y="500" type="line"/>
      <point x="353.808" y="250.5" type="line"/>
      <point x="527" y="1" type="line"/>
      <point x="414" y="1" type="line"/>
      <point x="274.5" y="201.643" type="line"/>
      <point x="135" y="1" type="line"/>
      <point x="25" y="1" type="line"/>
      <point x="198.192" y="250.5" type="line"/>
    </contour>
  </outline>
</glyph>
<glyph name="y" format="2">
  <advance width="552"/>
  <unicode hex="0079"/>
  <outline>
    <contour>
      <point x="25" y="500" type="line"/>
      <point x="134" y="500" type="line"/>
      <point x="277" y="100" type="line"/>
      <point x="421" y="500" type="line"/>
      <point x="527" y="500" type="line"/>
      <point x="333" y="-44" type="line" smooth="yes"/>
      <point x="310.674" y="-106.604"/>
      <point x="269.82" y="-185"/>
      <point x="157" y="-185" type="curve" smooth="yes"/>
      <point x="39" y="-185" type="line"/>
      <point x="39" y="-87" type="line"/>
      <point x="143" y="-87" type="line" smooth="yes"/>
      <point x="197.467" y="-87"/>
      <point x="224.469" y="-49.1338"/>
      <point x="238" y="-11" type="curve" smooth="yes"/>
      <point x="249" y="20" type="line"/>
      <point x="197" y="20" type="line"/>
    </contour>
  </outline>
</glyph>
<glyph name="z" format="2">
  <advance width="493"/>
  <unicode hex="007A"/>
  <outline>
    <contour>
      <point x="453" y="93" type="line"/>
      <point x="453" y="0" type="line"/>
      <point x="40" y="0" type="line"/>
      <point x="40" y="103" type="line"/>
      <point x="328.629" y="407" type="line"/>
      <point x="40" y="407" type="line"/>
      <point x="40" y="500" type="line"/>
      <point x="453" y="500" type="line"/>
      <point x="453" y="397" type="line"/>
      <point x="164.371" y="93" type="line"/>
    </contour>
  </outline>
</glyph>
